{"title":"[ShepardTDS] RahXephon Dual Audio [960p 8-bit x265 HEVC] 1-26+OV","uid":14218982,"size":4111003490,"categoryP":"video","categoryS":"tv_shows","magnet":"?xt=urn:btih:ee1063a9e837ace652f5ffa314bfba638aca6180&amp;dn=%5BShepardTDS%5D+RahXephon+Dual+Audio+%5B960p+8-bit+x265+HEVC%5D+1-26%2BOV&amp;tr=udp%3A%2F%2Ftracker.leechers-paradise.org%3A6969&amp;tr=udp%3A%2F%2Fzer0day.ch%3A1337&amp;tr=udp%3A%2F%2Fopen.demonii.com%3A1337&amp;tr=udp%3A%2F%2Ftracker.coppersurfer.tk%3A6969&amp;tr=udp%3A%2F%2Fexodus.desync.com%3A6969","seeders":2,"leechers":0,"uploader":"ShepardTDS","files":30,"time":1460021291,"description":"Constant Quality encoding.\r\nVariable Bit rates\r\nOP and ED included\r\nOva included\r\n\r\nGeneral\r\n\r\nFormat : Matroska\r\nFile size : 116 MiB-168 MiB\r\nDuration : 23mn 16s\r\nOverall bit rate : 698 Kbps-998 Kbps\r\nEncoded date : UTC 2016-01-26 22:00:29\r\nWriting application : mkvmerge v8.5.2 ('Crosses') 32bit\r\nWriting library : libebml v1.3.3 + libmatroska v1.4.4\r\n\r\nVideo\r\nID : 1\r\nFormat : V_MPEGH/ISO/HEVC\r\nCodec ID : V_MPEGH/ISO/HEVC\r\nDuration : 23mn 16s\r\nBit rate : 300 Kbps-594 Kbps\r\nWidth : 1 280 pixels\r\nHeight : 960 pixels\r\nDisplay aspect ratio : 4:3\r\nFrame rate : 23.976 fps\r\nBits/(Pixel*Frame) : 0.010\r\nStream size : 50.0 MiB (43%)\r\n\r\nAudio #1\r\nID : 2\r\nFormat : AC-3\r\nFormat/Info : Audio Coding 3\r\nMode extension : CM (complete main)\r\nCodec ID : A_AC3\r\nDuration : 23mn 16s\r\nBit rate mode : Constant\r\nBit rate : 192 Kbps\r\nChannel(s) : 2 channels\r\nChannel positions : Front: L R\r\nSampling rate : 48.0 KHz\r\nBit depth : 16 bits\r\nCompression mode : Lossy\r\nStream size : 32.0 MiB (28%)\r\nLanguage : English\r\n\r\nAudio #2\r\nID : 3\r\nFormat : AC-3\r\nFormat/Info : Audio Coding 3\r\nMode extension : CM (complete main)\r\nCodec ID : A_AC3\r\nDuration : 23mn 16s\r\nBit rate mode : Constant\r\nBit rate : 192 Kbps\r\nChannel(s) : 2 channels\r\nChannel positions : Front: L R\r\nSampling rate : 48.0 KHz\r\nBit depth : 16 bits\r\nCompression mode : Lossy\r\nStream size : 32.0 MiB (28%)\r\nLanguage : Japanese\r\n\r\nText #1\r\nID : 4\r\nFormat : ASS\r\nCodec ID : S_TEXT/ASS\r\nCodec ID/Info : Advanced Sub Station Alpha\r\nCompression mode : Lossless\r\nTitle : English Signs\r\nLanguage : English\r\n\r\nText #2\r\nID : 5\r\nFormat : ASS\r\nCodec ID : S_TEXT/ASS\r\nCodec ID/Info : Advanced Sub Station Alpha\r\nCompression mode : Lossless\r\nTitle : English Subtitles\r\nLanguage : English\r\n\r\nMenu\r\n00:00:00.000 : en:Opening Credits/Prologue\r\n00:01:18.181 : en:Act 1\r\n00:09:00.151 : en:Act 2\r\n00:20:27.451 : en:End Credits\r\n00:21:50.342 : en:Epilogue","torrent":{"xt":"urn:btih:ee1063a9e837ace652f5ffa314bfba638aca6180","amp;dn":"%5BShepardTDS%5D+RahXephon+Dual+Audio+%5B960p+8-bit+x265+HEVC%5D+1-26%2BOV","amp;tr":["udp%3A%2F%2Ftracker.leechers-paradise.org%3A6969","udp%3A%2F%2Fzer0day.ch%3A1337","udp%3A%2F%2Fopen.demonii.com%3A1337","udp%3A%2F%2Ftracker.coppersurfer.tk%3A6969","udp%3A%2F%2Fexodus.desync.com%3A6969"],"infoHash":"ee1063a9e837ace652f5ffa314bfba638aca6180","infoHashBuffer":{"type":"Buffer","data":[238,16,99,169,232,55,172,230,82,245,255,163,20,191,186,99,138,202,97,128]},"announce":[],"urlList":[]}}